<?xml version="1.0" encoding="UTF-8" standalone="no"?>
<svg width="64px" height="64px" viewBox="0 0 64 64" version="1.1" xmlns="http://www.w3.org/2000/svg" xmlns:xlink="http://www.w3.org/1999/xlink">
    <!-- Generator: Sketch 40 (33762) - http://www.bohemiancoding.com/sketch -->
    <title>iconfont-xiaolian</title>
    <desc>Created with Sketch.</desc>
    <defs></defs>
    <g id="微信" stroke="none" stroke-width="1" fill="none" fill-rule="evenodd">
        <g id="场馆介绍--无导师" transform="translate(-156.000000, -346.000000)" fill="#CFCFCF">
            <g id="瑜伽导师" transform="translate(-1.000000, 242.000000)">
                <g id="Group" transform="translate(133.000000, 104.000000)">
                    <g id="iconfont-xiaolian" transform="translate(24.000000, 0.000000)">
                        <path d="M31.9650273,63.9613552 C14.3611803,63.9613552 0.0408306011,49.6388197 0.0408306011,32.0349727 C0.0408306011,14.4333989 14.3611803,0.110775956 31.9650273,0.110775956 C49.5688743,0.110775956 63.8914098,14.4311257 63.8914098,32.0349727 C63.889224,49.6388197 49.5688743,63.9613552 31.9650273,63.9613552 L31.9650273,63.9613552 Z M31.9650273,3.46815301 C16.2144699,3.46815301 3.39820765,16.2844153 3.39820765,32.0349727 C3.39820765,47.7878033 16.2144699,60.6039781 31.9650273,60.6039781 C47.7178579,60.6039781 60.5340328,47.7878033 60.5340328,32.0349727 C60.531847,16.2844153 47.7178579,3.46815301 31.9650273,3.46815301 L31.9650273,3.46815301 Z" id="Fill-1"></path>
                        <path d="M31.9650273,50.8519344 C25.7068415,50.8519344 19.7822077,48.1100765 15.7041311,43.3314098 C15.0998033,42.6286339 15.1870601,41.5676503 15.8921093,40.9655956 C16.5905137,40.3612678 17.6536831,40.4485246 18.2580109,41.1535738 C21.6959126,45.1824262 26.6939454,47.4945574 31.9650273,47.4945574 C37.2383825,47.4945574 42.2363279,45.1824262 45.6743169,41.1535738 C46.280918,40.4485246 47.339541,40.3612678 48.0401311,40.9655956 C48.7451803,41.5676503 48.8325246,42.6263607 48.2281967,43.3314098 C44.1500328,48.1100765 38.2232131,50.8519344 31.9650273,50.8519344" id="Fill-2"></path>
                        <path d="M21.8973552,31.5470164 L21.4900109,31.5470164 C19.9993005,31.5470164 18.788459,30.3361749 18.788459,28.8454645 L18.788459,24.0085683 C18.788459,22.5201311 19.9993005,21.3092896 21.4900109,21.3092896 L21.8973552,21.3092896 C23.3857923,21.3092896 24.5967213,22.5201311 24.5967213,24.0085683 L24.5967213,28.8454645 C24.5967213,30.3361749 23.3857923,31.5470164 21.8973552,31.5470164" id="Fill-3"></path>
                        <path d="M42.4400437,31.5470164 L42.0326995,31.5470164 C40.5442623,31.5470164 39.3333333,30.3361749 39.3333333,28.8454645 L39.3333333,24.0085683 C39.3333333,22.5201311 40.5442623,21.3092896 42.0326995,21.3092896 L42.4400437,21.3092896 C43.9284809,21.3092896 45.1394098,22.5201311 45.1394098,24.0085683 L45.1394098,28.8454645 C45.1394098,30.3361749 43.9284809,31.5470164 42.4400437,31.5470164" id="Fill-4"></path>
                    </g>
                </g>
            </g>
        </g>
    </g>
</svg>